<?xml version="1.0" encoding="utf-8"?>
<!-- Generator: Adobe Illustrator 17.0.0, SVG Export Plug-In . SVG Version: 6.00 Build 0)  -->
<!DOCTYPE svg PUBLIC "-//W3C//DTD SVG 1.1//EN" "http://www.w3.org/Graphics/SVG/1.1/DTD/svg11.dtd">
<svg version="1.1" id="Isolation_Mode" xmlns="http://www.w3.org/2000/svg" xmlns:xlink="http://www.w3.org/1999/xlink" x="0px"
	 y="0px" width="203.368px" height="93px" viewBox="0 0 203.368 93" enable-background="new 0 0 203.368 93" xml:space="preserve">
<g>
	<g>
		<g>
			<path fill="#FFFFFF" d="M81.879,59.167l3.156,2.266l0.285,0.214c0.062,0.045,0.119,0.073,0.18,0.084
				c0.061,0.02,0.159,0.026,0.296,0.026v0.222c-0.251-0.016-0.476-0.023-0.661-0.023c-0.206,0-0.426,0.008-0.662,0.023l-3.188-2.335
				c-0.106-0.079-0.176-0.118-0.197-0.118c-0.068,0-0.1,0.048-0.1,0.139v1.088c0,0.534,0.016,0.827,0.045,0.877
				c0.047,0.083,0.214,0.128,0.503,0.128h0.351v0.222c-0.506-0.016-0.955-0.023-1.348-0.023c-0.41,0-0.848,0.008-1.319,0.023v-0.222
				h0.376c0.248,0,0.396-0.037,0.449-0.105c0.046-0.07,0.072-0.371,0.072-0.911v-2.387c0-0.653-0.026-1.019-0.072-1.103
				c-0.053-0.082-0.201-0.122-0.449-0.122H79.22v-0.225c0.567,0.016,0.978,0.025,1.233,0.025c0.187,0,0.661-0.01,1.434-0.025v0.225
				l-0.369,0.008c-0.21,0.01-0.347,0.028-0.4,0.066c-0.061,0.038-0.091,0.11-0.106,0.221c-0.016,0.107-0.023,0.422-0.023,0.945v0.96
				h0.064c0.255-0.158,0.469-0.304,0.65-0.438c0.184-0.133,0.484-0.36,0.898-0.691l1.315-1.048v-0.248
				c0.339,0.016,0.62,0.025,0.845,0.025c0.229,0,0.486-0.01,0.764-0.025v0.225H85.28c-0.221,0-0.412,0.03-0.567,0.097
				c-0.152,0.065-0.51,0.293-1.069,0.69L81.879,59.167z"/>
			<path fill="#FFFFFF" d="M86.025,57.129v-0.225c0.636,0.016,1.095,0.025,1.384,0.025c0.305,0,0.75-0.01,1.34-0.025v0.225h-0.343
				c-0.289,0-0.464,0.043-0.524,0.128c-0.058,0.085-0.084,0.471-0.084,1.162v1.397c0,0.513,0.034,0.867,0.105,1.066
				c0.073,0.203,0.26,0.371,0.563,0.51c0.304,0.137,0.708,0.206,1.214,0.206c0.521,0,0.962-0.075,1.32-0.219
				c0.246-0.105,0.426-0.266,0.539-0.476c0.113-0.219,0.176-0.626,0.176-1.229v-1.344c0-0.624-0.039-0.979-0.111-1.068
				c-0.072-0.091-0.273-0.134-0.601-0.134h-0.239v-0.225c0.639,0.016,1.049,0.025,1.221,0.025c0.285,0,0.635-0.01,1.053-0.025v0.225
				h-0.318c-0.244,0-0.404,0.05-0.473,0.15c-0.072,0.101-0.105,0.458-0.105,1.062v1.34c0,0.61-0.039,1.023-0.123,1.235
				c-0.074,0.212-0.22,0.407-0.426,0.576c-0.213,0.171-0.486,0.309-0.836,0.407c-0.346,0.1-0.754,0.15-1.225,0.15
				c-0.486,0-0.91-0.044-1.274-0.134c-0.365-0.089-0.64-0.199-0.825-0.331c-0.183-0.129-0.312-0.288-0.396-0.481
				c-0.083-0.188-0.121-0.51-0.121-0.965l0.008-0.676v-1.088c0-0.672-0.027-1.049-0.076-1.126c-0.053-0.082-0.213-0.122-0.49-0.122
				H86.025z"/>
			<path fill="#FFFFFF" d="M96.149,59.167l3.157,2.266l0.286,0.214c0.057,0.045,0.117,0.073,0.178,0.084
				c0.061,0.02,0.16,0.026,0.297,0.026v0.222c-0.251-0.016-0.471-0.023-0.669-0.023c-0.198,0-0.419,0.008-0.655,0.023l-3.187-2.335
				c-0.107-0.079-0.175-0.118-0.198-0.118c-0.068,0-0.098,0.048-0.098,0.139v1.088c0,0.534,0.014,0.827,0.045,0.877
				c0.045,0.083,0.213,0.128,0.502,0.128h0.35v0.222c-0.506-0.016-0.954-0.023-1.346-0.023c-0.408,0-0.849,0.008-1.32,0.023v-0.222
				h0.377c0.247,0,0.394-0.037,0.445-0.105c0.049-0.07,0.072-0.371,0.072-0.911v-2.387c0-0.653-0.023-1.019-0.072-1.103
				c-0.051-0.082-0.198-0.122-0.445-0.122h-0.377v-0.225c0.567,0.016,0.978,0.025,1.233,0.025c0.182,0,0.658-0.01,1.434-0.025v0.225
				l-0.369,0.008c-0.213,0.01-0.346,0.028-0.398,0.066c-0.062,0.038-0.092,0.11-0.107,0.221c-0.016,0.107-0.021,0.422-0.021,0.945
				v0.96h0.067c0.251-0.158,0.468-0.304,0.651-0.438c0.178-0.133,0.479-0.36,0.893-0.691l1.316-1.048v-0.248
				c0.339,0.016,0.62,0.025,0.841,0.025c0.231,0,0.487-0.01,0.769-0.025v0.225h-0.248c-0.221,0-0.41,0.03-0.566,0.097
				c-0.152,0.065-0.51,0.293-1.068,0.69L96.149,59.167z"/>
			<path fill="#FFFFFF" d="M101.139,61.613c0.053-0.369,0.076-1.012,0.076-1.93v-1.031c0-0.423-0.016-0.787-0.053-1.092
				c-0.023-0.181-0.054-0.285-0.088-0.31c-0.033-0.031-0.164-0.055-0.385-0.079l-0.371-0.043v-0.225
				c0.509,0.016,0.852,0.025,1.029,0.025l1.244-0.01l1.016-0.021c0.407-0.006,0.826,0.023,1.26,0.092
				c0.426,0.068,0.813,0.201,1.162,0.4c0.352,0.201,0.617,0.455,0.8,0.758c0.183,0.304,0.274,0.654,0.274,1.052
				c0,0.804-0.352,1.472-1.055,1.993c-0.703,0.53-1.623,0.791-2.754,0.791l-0.57-0.012c-0.559-0.018-0.912-0.023-1.061-0.023
				c-0.252,0-0.57,0.014-0.951,0.041v-0.182L101.139,61.613z M102.143,61.608c0.419,0.046,0.784,0.068,1.104,0.068
				c0.867,0,1.537-0.169,2.016-0.515c0.578-0.415,0.867-1.021,0.867-1.817c0-0.695-0.243-1.223-0.723-1.587
				c-0.479-0.366-1.184-0.544-2.107-0.544c-0.326,0-0.711,0.022-1.156,0.073c-0.037,0.228-0.053,0.487-0.053,0.778v2.331
				C102.09,60.828,102.106,61.231,102.143,61.608z"/>
			<path fill="#FFFFFF" d="M107.674,59.438c0-0.779,0.326-1.411,0.984-1.889c0.654-0.475,1.525-0.719,2.621-0.719
				c1.068,0,1.909,0.227,2.514,0.666c0.608,0.443,0.908,1.035,0.908,1.767c0,0.795-0.35,1.455-1.057,1.987
				c-0.703,0.534-1.59,0.801-2.662,0.801c-0.67,0-1.252-0.104-1.734-0.314c-0.486-0.207-0.867-0.515-1.152-0.916
				C107.819,60.417,107.674,59.959,107.674,59.438z M108.622,59.148c0,0.536,0.117,1.004,0.361,1.402
				c0.235,0.399,0.555,0.698,0.958,0.896c0.403,0.201,0.859,0.297,1.376,0.297c0.48,0,0.898-0.083,1.256-0.25
				c0.361-0.172,0.643-0.426,0.848-0.758c0.205-0.335,0.309-0.743,0.309-1.223c0-0.506-0.114-0.938-0.342-1.295
				c-0.225-0.355-0.537-0.625-0.933-0.809c-0.396-0.179-0.863-0.271-1.403-0.271c-0.494,0-0.92,0.081-1.277,0.241
				c-0.361,0.158-0.643,0.394-0.849,0.7C108.723,58.386,108.622,58.742,108.622,59.148z"/>
			<path fill="#FFFFFF" d="M116.445,57.7v2.47c0,0.564,0.015,0.952,0.046,1.18c0.021,0.169,0.057,0.272,0.105,0.308
				c0.054,0.038,0.202,0.062,0.449,0.079l0.297,0.021v0.222c-0.335-0.016-0.643-0.023-0.913-0.023c-0.19,0-0.628,0.008-1.309,0.023
				v-0.222h0.335c0.205,0,0.334-0.026,0.396-0.065c0.062-0.04,0.103-0.128,0.114-0.255c0.038-0.261,0.053-0.616,0.053-1.066v-1.772
				c0-0.333-0.004-0.664-0.015-0.987c-0.004-0.137-0.03-0.235-0.068-0.285c-0.046-0.052-0.103-0.096-0.183-0.136
				c-0.084-0.041-0.197-0.061-0.342-0.061h-0.286v-0.225c0.392,0.016,0.692,0.025,0.901,0.025c0.221,0,0.465-0.01,0.73-0.025
				c0.305,0.287,0.594,0.569,0.863,0.841c0.271,0.271,0.552,0.546,0.84,0.819l1.586,1.498c0.575,0.539,0.986,0.913,1.237,1.121
				v-2.292c0-0.958-0.022-1.479-0.065-1.568c-0.041-0.09-0.224-0.149-0.535-0.171l-0.346-0.023v-0.225
				c0.498,0.016,0.885,0.025,1.159,0.025c0.289,0,0.657-0.01,1.114-0.025v0.225h-0.357c-0.289,0-0.453,0.072-0.498,0.219
				c-0.03,0.099-0.043,0.62-0.043,1.565v1.608c0,0.433,0.027,0.949,0.073,1.552c-0.419-0.049-0.662-0.087-0.73-0.11
				c-0.068-0.022-0.13-0.062-0.19-0.116c-0.346-0.292-0.703-0.616-1.084-0.975L116.445,57.7z"/>
			<path fill="#FFFFFF" d="M129.437,60.296c-0.046,0.199-0.068,0.403-0.068,0.608c0,0.216,0.022,0.462,0.075,0.735
				c-0.414,0.128-0.882,0.223-1.399,0.299c-0.517,0.073-1.012,0.112-1.483,0.112c-0.73,0-1.374-0.11-1.925-0.331
				c-0.555-0.219-0.979-0.526-1.273-0.915c-0.297-0.394-0.445-0.837-0.445-1.335c0-0.514,0.158-0.968,0.479-1.371
				c0.319-0.398,0.761-0.709,1.332-0.934c0.57-0.223,1.289-0.335,2.16-0.335c0.357,0,0.684,0.02,0.984,0.056
				c0.301,0.034,0.688,0.107,1.176,0.213l0.395,0.082c-0.083,0.253-0.148,0.603-0.197,1.056h-0.293V58
				c0-0.232-0.025-0.371-0.072-0.408c-0.094-0.078-0.342-0.171-0.738-0.283c-0.402-0.112-0.858-0.172-1.369-0.172
				c-0.912,0-1.612,0.191-2.092,0.568c-0.528,0.405-0.79,0.947-0.79,1.622c0,0.643,0.235,1.19,0.71,1.632
				c0.56,0.523,1.316,0.783,2.279,0.783c0.502,0,1.043-0.085,1.628-0.254c0.022-0.201,0.03-0.413,0.03-0.64
				c0-0.293-0.008-0.462-0.02-0.508c-0.011-0.044-0.033-0.072-0.064-0.083c-0.034-0.016-0.197-0.029-0.486-0.05l-0.549-0.035v-0.224
				c0.709,0.024,1.233,0.036,1.575,0.036c0.297,0,0.552-0.012,0.765-0.036v0.181L129.437,60.296z"/>
			<path fill="#FFFFFF" d="M132.308,63.363c0.009-0.104,0.013-0.188,0.013-0.254l-0.013-0.305l0.096-0.038
				c0.167,0.077,0.339,0.122,0.509,0.122c0.252,0,0.427-0.066,0.525-0.194c0.1-0.13,0.145-0.478,0.145-1.04V58.58
				c0-0.785-0.03-1.223-0.088-1.315c-0.057-0.091-0.238-0.136-0.551-0.136h-0.312v-0.225c0.336,0.016,0.761,0.025,1.275,0.025
				c0.566,0,1.053-0.01,1.449-0.025v0.225l-0.312,0.014c-0.251,0.015-0.403,0.038-0.453,0.064c-0.049,0.022-0.088,0.068-0.102,0.133
				c-0.023,0.063-0.031,0.267-0.031,0.608v3.068c0,0.507-0.045,0.874-0.129,1.095c-0.134,0.354-0.381,0.652-0.738,0.897
				c-0.361,0.248-0.703,0.371-1.035,0.371C132.503,63.38,132.415,63.375,132.308,63.363z"/>
			<path fill="#FFFFFF" d="M137.683,59.554v0.875l0.004,0.5c0,0.315,0.003,0.546,0.015,0.693c0.453,0.025,0.932,0.037,1.449,0.037
				c0.346,0,0.639-0.011,0.871-0.035c0.148-0.017,0.312-0.045,0.482-0.095c0.076-0.209,0.152-0.47,0.236-0.785h0.305
				c-0.08,0.525-0.122,0.871-0.122,1.047l0.008,0.164c-0.351,0.023-0.7,0.035-1.042,0.035l-0.73-0.012
				c-0.803-0.016-1.392-0.023-1.769-0.023c-0.362,0-0.841,0.008-1.442,0.023v-0.222h0.146c0.267,0,0.436-0.022,0.51-0.062
				c0.067-0.042,0.114-0.138,0.137-0.287c0.022-0.149,0.034-0.479,0.034-0.991v-1.958c0-0.322-0.012-0.582-0.03-0.788
				c-0.02-0.207-0.042-0.329-0.065-0.364c-0.021-0.042-0.057-0.071-0.098-0.094c-0.047-0.021-0.176-0.041-0.4-0.059l-0.357-0.025
				v-0.225h0.502l0.491,0.012c0.273,0.006,0.479,0.014,0.624,0.014l1.779-0.021l0.844-0.004c0.286-0.001,0.579,0.006,0.868,0.025
				c-0.114,0.283-0.179,0.648-0.19,1.099h-0.312c0-0.261-0.018-0.478-0.054-0.648c-0.365-0.104-0.814-0.156-1.346-0.156
				c-0.419,0-0.863,0.016-1.328,0.044c0.004,0.223,0,0.445-0.012,0.666l-0.007,0.548v0.721c0.304,0.019,0.578,0.026,0.814,0.026
				c0.734,0,1.152-0.021,1.248-0.062c0.098-0.037,0.148-0.161,0.148-0.366v-0.236h0.311c-0.018,0.364-0.033,0.65-0.033,0.864
				c0,0.229,0.016,0.496,0.033,0.806h-0.311v-0.209c0-0.229-0.058-0.371-0.176-0.42c-0.117-0.052-0.524-0.074-1.227-0.074
				C138.231,59.531,137.96,59.537,137.683,59.554z"/>
			<path fill="#FFFFFF" d="M144.818,59.47c0.19-0.221,0.487-0.601,0.898-1.144l1.062-1.421h0.718v0.088
				c-0.38,0.327-0.845,0.818-1.392,1.477c-0.544,0.658-0.875,1.097-0.982,1.322c-0.037,0.078-0.053,0.277-0.053,0.602
				c0,0.429,0.016,0.768,0.039,1.02c0.021,0.136,0.053,0.218,0.098,0.244c0.043,0.028,0.202,0.052,0.473,0.071l0.354,0.028v0.222
				c-0.541-0.016-0.959-0.023-1.264-0.023l-1.494,0.023v-0.222h0.396c0.267,0,0.426-0.043,0.479-0.126
				c0.053-0.084,0.076-0.459,0.076-1.125c0-0.197-0.008-0.408-0.023-0.636c-0.398-0.565-0.768-1.052-1.103-1.465
				c-0.335-0.411-0.62-0.712-0.852-0.9c-0.129-0.108-0.236-0.175-0.33-0.205c-0.096-0.035-0.255-0.053-0.476-0.053v-0.223
				c0.125-0.018,0.372-0.056,0.745-0.11l0.365-0.059c0.145,0.041,0.259,0.091,0.342,0.153c0.156,0.11,0.393,0.369,0.711,0.769
				C143.848,58.083,144.251,58.647,144.818,59.47z"/>
			<path fill="#FFFFFF" d="M149.809,59.554v0.875l0.003,0.5c0,0.315,0.004,0.546,0.015,0.693c0.453,0.025,0.933,0.037,1.449,0.037
				c0.347,0,0.635-0.011,0.871-0.035c0.152-0.017,0.312-0.045,0.483-0.095c0.076-0.209,0.156-0.47,0.235-0.785h0.305
				c-0.08,0.525-0.122,0.871-0.122,1.047l0.008,0.164c-0.354,0.023-0.7,0.035-1.042,0.035l-0.73-0.012
				c-0.799-0.016-1.392-0.023-1.769-0.023c-0.361,0-0.841,0.008-1.441,0.023v-0.222h0.145c0.27,0,0.436-0.022,0.51-0.062
				c0.068-0.042,0.114-0.138,0.138-0.287c0.021-0.149,0.033-0.479,0.033-0.991v-1.958c0-0.322-0.012-0.582-0.03-0.788
				c-0.019-0.207-0.042-0.329-0.064-0.364c-0.022-0.042-0.054-0.071-0.099-0.094c-0.046-0.021-0.176-0.041-0.399-0.059l-0.358-0.025
				v-0.225h0.499l0.494,0.012c0.273,0.006,0.479,0.014,0.624,0.014l1.779-0.021l0.845-0.004c0.285-0.001,0.578,0.006,0.867,0.025
				c-0.114,0.283-0.179,0.648-0.19,1.099h-0.312c0-0.261-0.015-0.478-0.054-0.648c-0.365-0.104-0.814-0.156-1.342-0.156
				c-0.422,0-0.871,0.016-1.332,0.044c0.004,0.223,0,0.445-0.011,0.666l-0.007,0.548v0.721c0.304,0.019,0.577,0.026,0.813,0.026
				c0.734,0,1.148-0.021,1.248-0.062c0.1-0.037,0.145-0.161,0.145-0.366v-0.236h0.316c-0.02,0.364-0.035,0.65-0.035,0.864
				c0,0.229,0.016,0.496,0.035,0.806h-0.316v-0.209c0-0.229-0.053-0.371-0.171-0.42c-0.118-0.052-0.528-0.074-1.229-0.074
				C150.356,59.531,150.09,59.537,149.809,59.554z"/>
			<path fill="#FFFFFF" d="M155.026,57.7v2.47c0,0.564,0.016,0.952,0.043,1.18c0.022,0.169,0.057,0.272,0.109,0.308
				c0.054,0.038,0.198,0.062,0.445,0.079l0.301,0.021v0.222c-0.343-0.016-0.646-0.023-0.92-0.023c-0.188,0-0.625,0.008-1.301,0.023
				v-0.222h0.334c0.201,0,0.331-0.026,0.395-0.065c0.061-0.04,0.099-0.128,0.114-0.255c0.034-0.261,0.053-0.616,0.053-1.066v-1.772
				c0-0.333-0.007-0.664-0.015-0.987c-0.008-0.137-0.03-0.235-0.072-0.285c-0.042-0.052-0.102-0.096-0.183-0.136
				c-0.08-0.041-0.194-0.061-0.339-0.061h-0.288v-0.225c0.395,0.016,0.691,0.025,0.9,0.025c0.225,0,0.469-0.01,0.734-0.025
				c0.305,0.287,0.594,0.569,0.863,0.841c0.27,0.271,0.552,0.546,0.841,0.819l1.586,1.498c0.574,0.539,0.985,0.913,1.235,1.121
				v-2.292c0-0.958-0.021-1.479-0.068-1.568c-0.041-0.09-0.221-0.149-0.531-0.171l-0.351-0.023v-0.225
				c0.498,0.016,0.886,0.025,1.164,0.025c0.284,0,0.653-0.01,1.11-0.025v0.225h-0.357c-0.289,0-0.453,0.072-0.494,0.219
				c-0.031,0.099-0.042,0.62-0.042,1.565v1.608c0,0.433,0.026,0.949,0.072,1.552c-0.419-0.049-0.661-0.087-0.73-0.11
				c-0.067-0.022-0.133-0.062-0.194-0.116c-0.342-0.292-0.703-0.616-1.08-0.975L155.026,57.7z"/>
			<path fill="#FFFFFF" d="M169.715,58.192l-0.038-0.635c-0.274-0.143-0.564-0.244-0.867-0.315
				c-0.296-0.067-0.612-0.104-0.943-0.104c-0.829,0-1.499,0.197-2.005,0.585c-0.502,0.392-0.752,0.913-0.752,1.567
				c0,0.459,0.125,0.869,0.384,1.229c0.255,0.356,0.616,0.644,1.088,0.853c0.472,0.209,0.966,0.311,1.491,0.311
				c0.41,0,0.82-0.034,1.225-0.107c0.304-0.055,0.608-0.172,0.916-0.347l0.096,0.071c-0.06,0.11-0.122,0.221-0.18,0.333
				c-0.361,0.139-0.726,0.243-1.092,0.313c-0.365,0.072-0.736,0.106-1.105,0.106c-0.762,0-1.428-0.112-2.005-0.339
				c-0.578-0.226-1.019-0.54-1.331-0.936c-0.305-0.397-0.461-0.85-0.461-1.35c0-0.504,0.156-0.953,0.469-1.349
				c0.311-0.394,0.753-0.703,1.323-0.919c0.57-0.217,1.27-0.329,2.1-0.329c0.438,0,0.95,0.057,1.532,0.166
				c0.289,0.055,0.529,0.092,0.711,0.117c-0.141,0.256-0.22,0.614-0.242,1.078H169.715z"/>
			<path fill="#FFFFFF" d="M170.7,59.438c0-0.779,0.328-1.411,0.982-1.889c0.658-0.475,1.532-0.719,2.62-0.719
				c1.072,0,1.909,0.227,2.517,0.666c0.605,0.443,0.909,1.035,0.909,1.767c0,0.795-0.354,1.455-1.057,1.987
				c-0.704,0.534-1.594,0.801-2.666,0.801c-0.67,0-1.248-0.104-1.735-0.314c-0.487-0.207-0.866-0.515-1.148-0.916
				C170.84,60.417,170.7,59.959,170.7,59.438z M171.643,59.148c0,0.536,0.123,1.004,0.361,1.402c0.24,0.399,0.56,0.698,0.963,0.896
				c0.399,0.201,0.859,0.297,1.377,0.297c0.479,0,0.897-0.083,1.259-0.25c0.357-0.172,0.64-0.426,0.845-0.758
				c0.205-0.335,0.309-0.743,0.309-1.223c0-0.506-0.115-0.938-0.344-1.295c-0.224-0.355-0.535-0.625-0.932-0.809
				c-0.395-0.179-0.867-0.271-1.406-0.271c-0.494,0-0.922,0.081-1.278,0.241c-0.361,0.158-0.64,0.394-0.845,0.7
				C171.747,58.386,171.643,58.742,171.643,59.148z"/>
			<path fill="#FFFFFF" d="M179.132,61.214c0.146,0,0.275,0.04,0.381,0.121c0.107,0.08,0.155,0.179,0.155,0.296
				c0,0.115-0.049,0.214-0.155,0.299c-0.106,0.08-0.235,0.121-0.381,0.121c-0.151,0-0.281-0.041-0.388-0.121
				c-0.107-0.085-0.159-0.184-0.159-0.299c0-0.117,0.053-0.216,0.159-0.296C178.851,61.254,178.981,61.214,179.132,61.214z"/>
			<path fill="#FFFFFF" d="M182.172,60.973l0.129,0.108c-0.18,0.329-0.369,0.626-0.574,0.892c-0.206,0.262-0.479,0.559-0.818,0.886
				l-0.392,0.154l-0.138-0.11c0.271-0.315,0.469-0.606,0.594-0.862c0.122-0.262,0.209-0.539,0.252-0.844
				C181.583,61.129,181.901,61.056,182.172,60.973z"/>
			<path fill="#FFFFFF" d="M184.747,61.631c0.305,0.009,0.594,0.018,0.883,0.018c0.582,0,1.033-0.015,1.361-0.039
				c0.229-0.017,0.465-0.052,0.707-0.102l0.281-0.836h0.297c-0.076,0.448-0.137,0.869-0.178,1.258
				c-0.278,0.033-0.658,0.055-1.138,0.055l-2.206-0.029c-0.297,0-0.762,0.014-1.389,0.044v-0.19
				c0.248-0.083,0.393-0.173,0.438-0.268c0.046-0.096,0.068-0.475,0.068-1.13v-1.965c0-0.715-0.023-1.112-0.068-1.195
				c-0.045-0.082-0.168-0.122-0.377-0.122h-0.506v-0.225c0.738,0.016,1.225,0.025,1.469,0.025c0.319,0,0.757-0.01,1.309-0.025v0.225
				h-0.578c-0.16,0-0.267,0.034-0.312,0.106c-0.037,0.073-0.061,0.376-0.061,0.903v2.272l0.012,1.008L184.747,61.631z"/>
			<path fill="#FFFFFF" d="M191.881,57.23c-0.037,0.356-0.053,0.732-0.053,1.128v2.029c0,0.758,0.027,1.175,0.076,1.253
				c0.049,0.078,0.225,0.117,0.525,0.117h0.35v0.222c-0.548-0.016-1.012-0.023-1.393-0.023c-0.381,0-0.844,0.008-1.385,0.023v-0.222
				h0.396c0.201,0,0.334-0.022,0.396-0.065c0.061-0.04,0.099-0.122,0.114-0.244c0.029-0.277,0.049-0.636,0.049-1.073v-2.041
				c0-0.399-0.012-0.768-0.034-1.104h-0.472c-0.761,0-1.176,0.016-1.252,0.04c-0.079,0.03-0.125,0.134-0.151,0.32l-0.066,0.475
				h-0.296l0.007-0.42c0-0.171-0.014-0.419-0.053-0.74c1.666,0.016,2.648,0.025,2.943,0.025l2.564-0.025
				c-0.061,0.402-0.096,0.789-0.107,1.16h-0.293l-0.045-0.464c-0.019-0.162-0.045-0.259-0.08-0.287
				c-0.034-0.029-0.106-0.049-0.229-0.055c-0.338-0.018-0.723-0.029-1.155-0.029H191.881z"/>
			<path fill="#FFFFFF" d="M195.329,61.613c0.045-0.369,0.07-1.012,0.07-1.93v-1.031c0-0.423-0.018-0.787-0.057-1.092
				c-0.021-0.181-0.053-0.285-0.084-0.31c-0.037-0.031-0.166-0.055-0.387-0.079l-0.369-0.043v-0.225
				c0.51,0.016,0.852,0.025,1.03,0.025l1.244-0.01l1.016-0.021c0.407-0.006,0.825,0.023,1.255,0.092
				c0.43,0.068,0.822,0.201,1.168,0.4c0.346,0.201,0.616,0.455,0.795,0.758c0.183,0.304,0.273,0.654,0.273,1.052
				c0,0.804-0.35,1.472-1.05,1.993c-0.707,0.53-1.624,0.791-2.753,0.791l-0.57-0.012c-0.561-0.018-0.914-0.023-1.062-0.023
				c-0.254,0-0.566,0.014-0.954,0.041v-0.182L195.329,61.613z M196.329,61.608c0.414,0.046,0.783,0.068,1.098,0.068
				c0.868,0,1.537-0.169,2.018-0.515c0.577-0.415,0.866-1.021,0.866-1.817c0-0.695-0.239-1.223-0.723-1.587
				c-0.48-0.366-1.179-0.544-2.106-0.544c-0.324,0-0.707,0.022-1.152,0.073c-0.039,0.228-0.058,0.487-0.058,0.778v2.331
				C196.271,60.828,196.29,61.231,196.329,61.608z"/>
			<path fill="#FFFFFF" d="M202.829,61.214c0.148,0,0.273,0.04,0.379,0.121c0.107,0.08,0.16,0.179,0.16,0.296
				c0,0.115-0.053,0.214-0.16,0.299c-0.105,0.08-0.23,0.121-0.379,0.121c-0.152,0-0.281-0.041-0.389-0.121
				c-0.103-0.085-0.156-0.184-0.156-0.299c0-0.117,0.054-0.216,0.156-0.296C202.547,61.254,202.676,61.214,202.829,61.214z"/>
		</g>
		<g>
			<g>
				<path fill="#FFFFFF" d="M95.176,28.777l-4.043,11.688l4.381,14.187H89.03l-3.446-12.156v12.156H79.3V28.777h6.283v10.952
					l3.671-10.952H95.176z"/>
				<path fill="#FFFFFF" d="M112.436,28.751v16.368c0,3.237-0.502,5.622-1.506,7.15c-1.232,1.921-3.4,2.884-6.489,2.884
					c-1.73,0-3.142-0.276-4.245-0.824c-0.988-0.492-1.734-1.217-2.251-2.175c-0.472-0.826-0.784-1.893-0.936-3.211
					c-0.114-0.921-0.175-2.195-0.175-3.824V28.751h6.382v19.312c0,1.097,0.068,1.854,0.198,2.265
					c0.174,0.47,0.518,0.708,1.026,0.708c0.704,0,1.179-0.238,1.423-0.708c0.213-0.41,0.315-1.168,0.315-2.265V28.751H112.436z"/>
				<path fill="#FFFFFF" d="M130.487,28.777l-4.039,11.688l4.381,14.187h-6.488l-3.441-12.156v12.156h-6.283V28.777h6.283v10.952
					l3.67-10.952H130.487z"/>
				<path fill="#FFFFFF" d="M132.274,28.765h4.805c2.369,0,4.152,0.092,5.351,0.265c1.439,0.221,2.549,0.61,3.325,1.181
					c0.795,0.63,1.369,1.552,1.707,2.77c0.323,1.141,0.483,2.77,0.483,4.888v9.128c0,1.571-0.096,2.806-0.282,3.709
					c-0.189,1.002-0.523,1.78-0.996,2.328c-0.476,0.57-1.156,0.98-2.05,1.235c-0.852,0.233-2.001,0.354-3.442,0.354h-8.9V28.765z
					 M138.531,50.433c0.761,0,1.358-0.069,1.796-0.205c0.418-0.137,0.733-0.343,0.939-0.62c0.171-0.252,0.274-0.607,0.313-1.058
					c0.037-0.275,0.061-0.774,0.061-1.5v-0.56V36.393v-0.411c0-1.195-0.126-1.953-0.373-2.265c-0.396-0.492-1.309-0.736-2.735-0.736
					V50.433z"/>
				<path fill="#FFFFFF" d="M165.554,43.912c0,1.805-0.076,3.248-0.227,4.324c-0.172,1.452-0.495,2.648-0.967,3.591
					c-0.57,1.059-1.369,1.861-2.396,2.413c-1.133,0.608-2.586,0.913-4.351,0.913c-1.817,0-3.302-0.305-4.439-0.913
					c-1.047-0.527-1.841-1.335-2.393-2.413c-0.471-0.923-0.807-2.107-0.996-3.562c-0.114-1.059-0.168-2.51-0.168-4.353V39.44
					c0-1.847,0.054-3.296,0.168-4.355c0.189-1.454,0.525-2.629,0.996-3.531c0.552-1.061,1.346-1.865,2.393-2.417
					c1.137-0.566,2.621-0.852,4.439-0.852c1.765,0,3.218,0.285,4.351,0.852c1.027,0.552,1.826,1.356,2.396,2.417
					c0.472,0.92,0.795,2.098,0.967,3.531c0.151,1.079,0.227,2.529,0.227,4.355V43.912z M159.249,35.373
					c0-1.252-0.114-2.067-0.346-2.441c-0.21-0.354-0.639-0.53-1.29-0.53c-0.741,0-1.235,0.283-1.483,0.852
					c-0.152,0.394-0.229,1.102-0.229,2.12v12.16c0,1.118,0.084,1.921,0.256,2.412c0.246,0.728,0.733,1.091,1.456,1.091
					c0.745,0,1.232-0.325,1.46-0.97c0.138-0.396,0.191-1.123,0.176-2.181v-0.559V35.373z"/>
				<path fill="#FFFFFF" d="M182.92,28.777v25.875h-5.496l-4.613-14.598v14.598h-5.226V28.777h5.226l4.914,15.133V28.777H182.92z"/>
				<path fill="#FFFFFF" d="M200.964,38.201h-6.302v-2.265v-0.648c0.019-1.004-0.039-1.68-0.172-2.035
					c-0.209-0.568-0.665-0.852-1.369-0.852c-0.799,0-1.313,0.275-1.537,0.825c-0.151,0.335-0.232,0.972-0.232,1.913l0.03,0.354
					V48.03c0,1.196,0.114,1.993,0.342,2.384c0.229,0.431,0.716,0.646,1.457,0.646c0.67,0,1.119-0.234,1.347-0.703
					c0.228-0.435,0.343-1.277,0.343-2.533v-3.238h-1.305v-3.66h7.398V54.65h-3.909l-0.682-2.093
					c-0.533,0.922-1.168,1.579-1.913,1.972c-0.761,0.433-1.788,0.647-3.077,0.647c-2.445,0-4.164-0.99-5.149-2.971
					c-0.741-1.472-1.11-3.609-1.11-6.414V38.08c0-3.254,0.437-5.59,1.312-6.999c1.178-1.867,3.35-2.797,6.521-2.797
					c2.888,0,4.979,0.785,6.269,2.352c1.161,1.411,1.738,3.591,1.738,6.534V38.201z"/>
			</g>
		</g>
	</g>
	<rect x="0" y="0" fill="#A1A0A0" width="71.69" height="93"/>
	<g>
		<path d="M39.414,31.683c-0.004-0.023-0.008-0.048-0.008-0.072c-0.388-5.648-2.225-9.691-5.359-10.659
			c-5.869-1.809-14.058,7.865-18.291,21.609c-4.229,13.741-2.906,26.345,2.967,28.15c3.833,1.184,8.649-2.534,12.711-9.078
			c-0.216-0.021-0.43-0.05-0.639-0.089c-2.042,2.47-4.127,3.715-5.831,3.192c-3.648-1.126-4.165-9.944-1.167-19.698
			c3.008-9.758,8.397-16.755,12.049-15.63c1.175,0.365,2.023,1.528,2.541,3.261c0,0.011,0,0.021,0.008,0.029
			c1.012,3.469,0.685,9.204-1.092,15.425C39.049,42.101,39.722,36.35,39.414,31.683z"/>
		<path fill="#ED1C24" d="M59.554,23.265c-3.838-3.197-12.342,0.5-20.147,8.347c0,0.024,0.003,0.049,0.008,0.072
			c5.165-4.972,10.391-7.393,12.631-5.522c2.73,2.274,0.011,10.039-6.075,17.34c-2.168,2.607-4.473,4.799-6.667,6.443
			c-0.225,0.167-0.445,0.331-0.674,0.486c-0.897,0.634-1.772,1.169-2.601,1.599c-0.008,0.002-0.016,0.007-0.023,0.009
			c-0.06,0.032-0.125,0.063-0.183,0.093c-0.015,0.133-0.019,0.271-0.015,0.421c0,0.021,0,0.043,0.003,0.062
			c0.087,1.707,1.495,4.167,3.792,6.644c2.248-1.261,4.617-2.98,6.968-5.09c0-0.007,0.004-0.007,0.008-0.01
			c1.84-1.652,3.667-3.543,5.416-5.643C60.565,38.23,63.951,26.924,59.554,23.265z"/>
		<path fill="#FFFFFF" d="M48.371,55.613c4.599,3.995,7.109,8.538,5.633,10.314c-1.532,1.833-6.751,0.005-11.657-4.083
			c-1.012-0.843-1.928-1.715-2.742-2.587c-2.297-2.477-3.705-4.937-3.792-6.644c-0.003-0.02-0.003-0.042-0.003-0.062
			c-0.004-0.149,0-0.288,0.015-0.421c0.046-0.394,0.175-0.736,0.403-1.012c0.057-0.062,0.118-0.123,0.182-0.183
			c0-0.002,0.004-0.002,0.008-0.006c0.494-0.431,1.262-0.589,2.213-0.5c0.228-0.155,0.449-0.319,0.674-0.486
			c-0.803-0.316-1.579-0.569-2.32-0.754c-2.73-0.681-4.941-0.43-6.074,0.931c-0.559,0.665-0.798,1.546-0.768,2.578
			c0.061,1.763,0.943,3.963,2.483,6.279c0.061,0.094,0.122,0.183,0.183,0.275c0.482,0.699,1.019,1.41,1.609,2.118
			c1.282,1.53,2.814,3.068,4.556,4.519c6.919,5.76,14.514,8.034,16.975,5.079C58.347,68.092,54.963,61.292,48.371,55.613z"/>
	</g>
</g>
</svg>
